<svg enable-background="new 0 0 154.331 189.558" height="1200" viewBox="0 0 154.331 189.558" width="1200" xmlns="http://www.w3.org/2000/svg" xmlns:xlink="http://www.w3.org/1999/xlink"><radialGradient id="a" cx="490.49509" cy="498.62939" gradientTransform="matrix(0 .13804796 -.13617477 0 144.5042 -4.174355)" gradientUnits="userSpaceOnUse" r="488.25"><stop offset="0" stop-color="#caf546"/><stop offset="1" stop-color="#a4c639"/></radialGradient><filter id="b" height="1.21236" width="1.252315" x="-.126208" y="-.10618"><feGaussianBlur stdDeviation="20.347502"/></filter><g transform="translate(.562022 -.72627)"><path d="m147.1875 99.4375c-4.8659-.000004-10.56251 5.65102-10.5625 10.46875 0 2.04217 13.65104 28.67682 30.34375 59.1875 16.69269 30.5109 30.00743 55.72386 29.59375 56.03125-.41367.30739-8.43748 5.13749-17.84375 10.71875-63.06248 37.41859-112.8098 89.91832-143.0625 150.96875-20.458902 41.28618-31.9028586 82.61241-34.09375 123.25l-1.1875 22.0625h.9375c-9.8181047 119.77081 37.657315 252.49684 94.75 335.03125 38.33005 55.22903 84.35387 118.3868 144.25 115.9375 57.9097-2.07804 79.89287-37.6875 149.75-37.6875 69.97766-.00001 89.59746 37.66177 150.90625 36.5625 62.31647-.97876 101.74746-56.95046 139.875-112.46875 44.11087-64.36072 62.09769-126.95162 63.25-130.4375-1.32591-.46288-121.4382-45.93792-122.875-184.5625-1.06553-114.82139 94.5168-171.2443 98.75-174.09375-.0725-.10513-.1461-.20762-.21875-.3125 3.17787-1.85397 6.40157-3.6316 9.6875-5.3125-17.19008-31.26908-39.64426-60.05873-67.59375-86.65625-24.9078-23.7031-47.57138-39.92566-87.71875-62.8125-.2943-.1679 11.67466-22.49175 26.59375-49.625 38.78914-70.5462 36.21498-64.83694 32.15625-71.03125-3.69758-5.643244-12.0794-6.998321-15.75-2.53125-1.2161 1.47991-15.48954 26.9018-31.71875 56.5-16.22922 29.5982-30.14434 54.50769-30.90625 55.34375-.76187.83607-9.75332-1.83573-19.96875-5.9375-44.0429-17.68401-94.78957-26.78125-149.28125-26.78125-53.99771-.00001-104.25054 9.01385-148.84375 26.71875-10.40363 4.13062-19.09345 7.3023-19.3125 7.0625s-13.68422-24.6518-29.90625-54.25-30.9727-55.49062-32.8125-57.5625c-1.83978-2.07187-5.08771-3.781249-7.1875-3.78125z" filter="url(#b)" stroke="#000" stroke-linejoin="round" stroke-width="90" transform="matrix(.17879527 0 0 .17879527 10.088317 -1.276603)"/><path d="m36.404743 16.502348c-.869999-.000001-1.888526 1.010375-1.888524 1.871762 0 .365131 2.440741 5.12728 5.425319 10.582445 2.984574 5.455205 5.365186 9.963163 5.291222 10.018123-.07396.05496-1.508581.918559-3.190378 1.916462-11.275273 6.690267-20.169859 16.07697-25.578898 26.992498-3.657955 7.381774-5.704081 14.770708-6.095802 22.036517l-.212319 3.944671h.16762c-1.7554298 21.414464 6.732951 45.145244 16.940852 59.902004 6.853232 9.87469 15.082073 21.167 25.791218 20.72908 10.35398-.37154 14.284468-6.73835 26.774592-6.73835 12.511675 0 16.019603 6.73375 26.981325 6.5372 11.14189-.17499 18.19196-10.18247 25.00898-20.10888 7.88682-11.50739 11.10278-22.69835 11.30881-23.32161-.23707-.0827-21.71258-8.21348-21.96948-32.998904-.19051-20.529518 16.89917-30.617667 17.65604-31.127135-.013-.0188-.0261-.03712-.0391-.05587.56819-.33148 1.14456-.649313 1.73208-.949849-3.07351-5.590764-7.08821-10.738218-12.08545-15.493728-4.45339-4.238002-8.50554-7.138519-15.68369-11.230578-.0526-.03002 2.08737-4.021419 4.75484-8.872715 6.93531-12.613327 6.47506-11.592538 5.74938-12.700051-.66112-1.008986-2.15974-1.251267-2.81602-.452576-.21744.264601-2.76946 4.809915-5.67116 10.101932-2.90171 5.292018-5.38967 9.745718-5.52589 9.895201-.13623.149485-1.74386-.32822-3.57033-1.061597-7.874662-3.161818-16.947924-4.78836-26.690778-4.78836-9.654536-.000003-18.639505 1.611633-26.61256 4.777185-1.860119.738536-3.413818 1.305618-3.452983 1.262742-.03916-.04287-2.446674-4.407625-5.347097-9.699643-2.90039-5.292019-5.53774-9.921461-5.866687-10.291903-.328944-.370442-.909659-.67607-1.285092-.67607z" fill="#fff" stroke="#fff" stroke-linejoin="round" stroke-width="16.0915"/><path d="m36.364514 16.502046c-.869999 0-1.889394 1.010984-1.889393 1.872372 0 .36513 2.441044 5.123731 5.425622 10.578897 2.984575 5.455207 5.367668 9.966484 5.293705 10.021443-.07396.05496-1.509746.917022-3.191542 1.914925-11.275275 6.690269-20.170106 16.076406-25.579147 26.991936-3.657955 7.38177-5.701998 14.772852-6.093718 22.038663l-.212769 3.944746h68.950076 42.064522c1.28888-12.295524 8.80464-22.744874 19.33649-28.132381-3.07351-5.59076-7.08807-10.73836-12.08531-15.493873-4.45339-4.238003-8.50721-7.137915-15.68536-11.229973-.0526-.03002 2.09006-4.025445 4.75752-8.876743 6.93532-12.613327 6.47472-11.590568 5.74904-12.698082-.6611-1.008986-2.16078-1.249762-2.81708-.45107-.21743.2646-2.77072 4.810274-5.67243 10.102294-2.9017 5.29202-5.38726 9.744297-5.5235 9.89378-.13622.149486-1.74379-.330468-3.57026-1.063847-7.874656-3.161818-16.946948-4.787314-26.689804-4.787314-9.654535 0-18.640149 1.613251-26.613207 4.778803-1.860121.738536-3.416211 1.306726-3.455376 1.26385-.03916-.04287-2.444347-4.410268-5.344769-9.702287-2.900421-5.29202-5.539234-9.919089-5.868182-10.289531-.328943-.370442-.909695-.676608-1.285128-.676608zm11.136354 40.898548c3.481406 0 6.306488 2.649946 6.306488 5.914992 0 3.265047-2.825082 5.914991-6.306488 5.914991-3.481405-.000001-6.306486-2.649944-6.306486-5.914991 0-3.265048 2.825081-5.914992 6.306486-5.914992zm62.911672 0c3.48141 0 6.30649 2.649946 6.30649 5.914992 0 3.265047-2.82509 5.914991-6.30649 5.914991-3.4814-.000001-6.30648-2.649944-6.30648-5.914991 0-3.265048 2.82508-5.914992 6.30648-5.914992zm-100.197394 47.200786c1.163354 18.26292 8.484993 36.84032 17.008791 49.16252 6.853233 9.87467 15.082772 21.17017 25.791916 20.73225 10.353982-.37156 14.284787-6.74053 26.774912-6.74053 12.511674 0 16.017449 6.73281 26.979165 6.53627 11.14188-.17499 18.1919-10.18032 25.00893-20.10672 7.8868-11.50739 11.10479-22.70054 11.31082-23.32379-.2141-.0748-17.74763-6.71629-21.33227-26.26z" fill="url(#a)"/></g></svg>